<svg width="175" height="41" viewBox="0 0 175 41" fill="none" xmlns="http://www.w3.org/2000/svg">
<path d="M94.3836 13.3238C96.4208 13.3238 98.0361 13.9205 99.2296 15.114C100.444 16.287 101.051 18.0052 101.051 20.2687V29.6829H98.8592V20.4848C98.8592 18.7974 98.4374 17.5113 97.5937 16.6265C96.75 15.7417 95.5462 15.2992 93.9823 15.2992C92.2333 15.2992 90.8443 15.824 89.8154 16.8734C88.8071 17.9023 88.303 19.3324 88.303 21.1638V29.6829H86.1115V6.78015H88.303V16.287C88.8997 15.3404 89.7228 14.6099 90.7723 14.0955C91.8217 13.581 93.0255 13.3238 94.3836 13.3238Z" fill="white"/>
<path d="M75.689 29.8373C74.0839 29.8373 72.6435 29.4875 71.3677 28.7878C70.1125 28.0882 69.1248 27.1108 68.4045 25.8555C67.6843 24.5797 67.3242 23.1496 67.3242 21.5651C67.3242 19.9807 67.6843 18.5608 68.4045 17.3056C69.1248 16.0504 70.1125 15.0729 71.3677 14.3733C72.6435 13.6737 74.0839 13.3239 75.689 13.3239C77.0882 13.3239 78.3332 13.6016 79.4238 14.1572C80.535 14.6923 81.4095 15.4845 82.0474 16.5339L80.4115 17.6451C79.8765 16.8426 79.1974 16.2459 78.3743 15.8549C77.5512 15.4433 76.6561 15.2376 75.689 15.2376C74.5161 15.2376 73.4563 15.5051 72.5097 16.0401C71.5838 16.5545 70.8533 17.2953 70.3182 18.2625C69.8038 19.2296 69.5466 20.3305 69.5466 21.5651C69.5466 22.8204 69.8038 23.9316 70.3182 24.8987C70.8533 25.8453 71.5838 26.586 72.5097 27.1211C73.4563 27.6355 74.5161 27.8927 75.689 27.8927C76.6561 27.8927 77.5512 27.6972 78.3743 27.3063C79.1974 26.9153 79.8765 26.3185 80.4115 25.516L82.0474 26.6272C81.4095 27.6767 80.535 28.4792 79.4238 29.0348C78.3126 29.5698 77.0677 29.8373 75.689 29.8373Z" fill="white"/>
<path d="M65.5607 28.6953C65.1491 29.0657 64.645 29.3537 64.0482 29.5595C63.4515 29.7447 62.8239 29.8373 62.1654 29.8373C60.6427 29.8373 59.4697 29.4258 58.6466 28.6027C57.8235 27.7796 57.412 26.6169 57.412 25.1148V9.89771H59.6035V13.4473H64.5112V15.2993H59.6035V24.9913C59.6035 25.9584 59.8401 26.6992 60.3134 27.2137C60.7867 27.7075 61.476 27.9545 62.3815 27.9545C63.3692 27.9545 64.1717 27.6767 64.789 27.1211L65.5607 28.6953Z" fill="white"/>
<path d="M51.4628 13.4473V29.683H49.3639V26.4729C48.7054 27.5635 47.8309 28.3969 46.7403 28.973C45.6703 29.5492 44.4562 29.8373 43.0981 29.8373C41.5753 29.8373 40.1966 29.4875 38.962 28.7878C37.7273 28.0882 36.7602 27.1108 36.0606 25.8555C35.3609 24.6003 35.0111 23.1702 35.0111 21.5651C35.0111 19.9601 35.3609 18.53 36.0606 17.2747C36.7602 16.0195 37.7273 15.0524 38.962 14.3733C40.1966 13.6737 41.5753 13.3239 43.0981 13.3239C44.415 13.3239 45.5982 13.6016 46.6477 14.1572C47.7177 14.6923 48.5923 15.4845 49.2713 16.5339V13.4473H51.4628ZM43.2833 27.8927C44.415 27.8927 45.4336 27.6355 46.339 27.1211C47.265 26.586 47.9852 25.835 48.4997 24.8678C49.0347 23.9007 49.3022 22.7998 49.3022 21.5651C49.3022 20.3305 49.0347 19.2296 48.4997 18.2625C47.9852 17.2953 47.265 16.5545 46.339 16.0401C45.4336 15.5051 44.415 15.2376 43.2833 15.2376C42.1309 15.2376 41.0918 15.5051 40.1658 16.0401C39.2604 16.5545 38.5401 17.2953 38.0051 18.2625C37.4907 19.2296 37.2335 20.3305 37.2335 21.5651C37.2335 22.7998 37.4907 23.9007 38.0051 24.8678C38.5401 25.835 39.2604 26.586 40.1658 27.1211C41.0918 27.6355 42.1309 27.8927 43.2833 27.8927Z" fill="white"/>
<path d="M30.2489 8.07654V21.1947C30.2489 24.055 29.539 26.2156 28.1192 27.6766C26.7199 29.1376 24.7342 29.8681 22.162 29.8681C20.454 29.8681 18.993 29.5389 17.779 28.8804C16.5855 28.2219 15.7006 27.2856 15.1245 26.0716C14.5277 27.3062 13.6326 28.2528 12.4391 28.9113C11.2456 29.5492 9.80518 29.8681 8.11783 29.8681C5.52506 29.8681 3.51875 29.1376 2.09891 27.6766C0.699635 26.2156 0 24.055 0 21.1947V8.07654H2.2841V21.1021C2.2841 25.588 4.22868 27.8309 8.11783 27.8309C9.99038 27.8309 11.4411 27.2856 12.47 26.195C13.4988 25.0838 14.0133 23.3862 14.0133 21.1021V8.07654H16.2665V21.1021C16.2665 23.4068 16.7707 25.1044 17.779 26.195C18.8078 27.2856 20.2688 27.8309 22.162 27.8309C24.0345 27.8309 25.475 27.2856 26.4832 26.195C27.4915 25.0838 27.9957 23.3862 27.9957 21.1021V8.07654H30.2489Z" fill="white"/>
<path d="M173.38 6.81104V29.7138H171.281V26.5037C170.622 27.5943 169.748 28.4277 168.657 29.0039C167.587 29.58 166.373 29.8681 165.015 29.8681C163.492 29.8681 162.113 29.5183 160.879 28.8187C159.644 28.119 158.677 27.1416 157.977 25.8864C157.278 24.6311 156.928 23.201 156.928 21.596C156.928 19.9909 157.278 18.5608 157.977 17.3056C158.677 16.0503 159.644 15.0832 160.879 14.4041C162.113 13.7045 163.492 13.3547 165.015 13.3547C166.332 13.3547 167.515 13.6325 168.564 14.1881C169.634 14.7231 170.509 15.5153 171.188 16.5648V6.81104H173.38ZM165.2 27.9235C166.332 27.9235 167.35 27.6663 168.256 27.1519C169.182 26.6169 169.902 25.8658 170.416 24.8987C170.951 23.9315 171.219 22.8306 171.219 21.596C171.219 20.3613 170.951 19.2604 170.416 18.2933C169.902 17.3261 169.182 16.5853 168.256 16.0709C167.35 15.5359 166.332 15.2684 165.2 15.2684C164.048 15.2684 163.009 15.5359 162.083 16.0709C161.177 16.5853 160.457 17.3261 159.922 18.2933C159.407 19.2604 159.15 20.3613 159.15 21.596C159.15 22.8306 159.407 23.9315 159.922 24.8987C160.457 25.8658 161.177 26.6169 162.083 27.1519C163.009 27.6663 164.048 27.9235 165.2 27.9235Z" fill="white"/>
<path d="M145.848 29.8682C144.284 29.8682 142.875 29.5184 141.62 28.8187C140.364 28.0985 139.377 27.1108 138.656 25.8556C137.936 24.6003 137.576 23.1805 137.576 21.596C137.576 20.0116 137.936 18.5917 138.656 17.3365C139.377 16.0813 140.364 15.1038 141.62 14.4042C142.875 13.7046 144.284 13.3547 145.848 13.3547C147.412 13.3547 148.822 13.7046 150.077 14.4042C151.332 15.1038 152.31 16.0813 153.009 17.3365C153.73 18.5917 154.09 20.0116 154.09 21.596C154.09 23.1805 153.73 24.6003 153.009 25.8556C152.31 27.1108 151.332 28.0985 150.077 28.8187C148.822 29.5184 147.412 29.8682 145.848 29.8682ZM145.848 27.9236C147.001 27.9236 148.03 27.6664 148.935 27.1519C149.861 26.6169 150.581 25.8659 151.096 24.8987C151.61 23.9316 151.867 22.8307 151.867 21.596C151.867 20.3614 151.61 19.2605 151.096 18.2933C150.581 17.3262 149.861 16.5854 148.935 16.071C148.03 15.536 147.001 15.2684 145.848 15.2684C144.696 15.2684 143.657 15.536 142.731 16.071C141.825 16.5854 141.105 17.3262 140.57 18.2933C140.056 19.2605 139.799 20.3614 139.799 21.596C139.799 22.8307 140.056 23.9316 140.57 24.8987C141.105 25.8659 141.825 26.6169 142.731 27.1519C143.657 27.6664 144.696 27.9236 145.848 27.9236Z" fill="white"/>
<path d="M137.458 16.5758L136.496 16.0257L129.624 19.9907L116.27 27.7145V35.6676L137.458 23.4286C138.672 22.7181 139.428 21.4117 139.428 19.9907C139.428 18.5927 138.672 17.2863 137.458 16.5758Z" fill="white"/>
<path d="M110.635 17.4703V9.01303L117.965 13.2531L110.635 17.4703ZM131.708 13.2531L124.814 9.28807L109.673 0.532856C108.459 -0.177624 106.947 -0.177624 105.734 0.532856C104.519 1.24334 103.764 2.54973 103.764 3.94778V21.4353V29.3654V36.0578C103.764 37.4558 104.519 38.7623 105.734 39.4728C106.329 39.8166 107.016 40 107.703 40C108.39 40 109.078 39.8166 109.673 39.4728L110.635 38.9227V25.4004L124.814 17.2182L131.708 13.2531Z" fill="#F89880"/>
</svg>
